<?xml version="1.0" standalone="no"?>
<!DOCTYPE svg PUBLIC "-//W3C//DTD SVG 20010904//EN"
 "http://www.w3.org/TR/2001/REC-SVG-20010904/DTD/svg10.dtd">
<svg version="1.0" xmlns="http://www.w3.org/2000/svg"
 width="239.000000pt" height="200.000000pt" viewBox="0 0 239.000000 200.000000"
 preserveAspectRatio="xMidYMid meet">

<g transform="translate(0.000000,200.000000) scale(0.100000,-0.100000)"
fill="#000000" stroke="none">
<path d="M548 1952 c-30 -33 -77 -125 -334 -647 -117 -237 -195 -500 -210
-707 -5 -69 -2 -103 20 -198 22 -99 32 -124 73 -184 27 -38 62 -79 78 -91 107
-80 372 -110 901 -102 284 4 328 7 403 26 46 12 105 32 130 45 25 12 63 31 85
41 45 23 107 90 135 149 18 37 32 48 114 89 169 86 295 206 366 351 71 142 87
271 51 411 -29 114 -62 179 -123 240 -85 85 -181 105 -262 55 -62 -38 -68 -67
-76 -345 -7 -242 -19 -349 -39 -369 -7 -7 -10 -4 -10 8 0 53 -81 245 -239 567
-68 138 -101 218 -101 240 0 56 -67 306 -97 361 -40 74 -105 98 -172 63 -44
-22 -117 -112 -153 -187 l-33 -67 -121 6 c-82 4 -123 2 -128 -5 -10 -17 90
-34 172 -30 39 1 72 0 72 -4 0 -5 11 -8 25 -8 14 0 25 6 25 14 0 29 71 153
112 195 98 99 149 71 201 -109 13 -47 32 -130 42 -185 15 -88 27 -122 107
-285 206 -422 254 -554 264 -724 13 -217 -50 -346 -203 -419 -74 -34 -272 -77
-360 -77 l-62 0 30 45 c48 71 69 143 69 235 0 78 -18 150 -38 150 -5 0 -9 -53
-8 -118 1 -114 0 -119 -32 -185 -52 -105 -118 -134 -181 -81 -47 39 -54 59
-66 187 -12 119 -21 142 -52 130 -10 -4 -12 -13 -8 -27 3 -11 10 -70 15 -131
9 -113 18 -157 29 -151 3 2 16 -10 29 -25 l24 -29 -167 0 c-155 0 -165 1 -150
17 28 27 33 53 34 182 1 126 -4 146 -36 134 -10 -4 -13 -35 -13 -130 0 -68 -5
-133 -10 -144 -16 -30 -76 -25 -133 10 -79 51 -120 132 -132 264 -4 43 -11 77
-16 77 -16 0 -31 -84 -24 -136 12 -96 85 -211 160 -252 19 -11 18 -11 -6 -12
-44 0 -196 29 -241 47 -63 24 -94 49 -139 110 -113 153 -117 372 -13 725 29
101 105 293 133 337 7 11 20 11 79 -3 91 -20 102 -20 102 3 0 24 -18 31 -97
38 l-62 6 25 49 c26 51 63 133 164 367 33 73 69 144 81 157 68 72 166 11 220
-137 24 -66 42 -69 33 -6 -13 81 -70 174 -126 203 -50 26 -92 18 -130 -24z
m1594 -563 c53 -27 93 -70 129 -141 144 -283 23 -617 -290 -801 -118 -68 -109
-73 -105 61 1 65 8 131 14 147 35 88 42 138 50 391 9 278 16 316 61 348 32 22
92 20 141 -5z"/>
<path d="M690 1455 c0 -40 -18 -67 -42 -63 -16 2 -24 -5 -34 -32 -21 -57 -18
-79 13 -86 32 -8 57 17 73 74 13 47 13 119 0 127 -6 4 -10 -5 -10 -20z"/>
<path d="M1075 1428 c0 -35 -3 -43 -17 -42 -13 1 -18 -6 -18 -25 0 -43 20
-102 37 -108 27 -11 43 26 42 96 -1 80 -10 115 -29 119 -11 2 -15 -8 -15 -40z"/>
<path d="M1321 1271 c-28 -18 -4 -41 42 -41 62 0 137 11 137 20 0 15 -160 34
-179 21z"/>
<path d="M281 1165 c-62 -17 -71 -22 -71 -37 0 -7 24 -9 75 -5 81 7 119 21
112 40 -5 18 -55 18 -116 2z"/>
<path d="M637 1154 c-4 -4 -7 -25 -7 -47 0 -107 107 -150 188 -74 l24 22 22
-28 c26 -33 83 -51 117 -38 41 15 72 57 73 97 1 50 -17 53 -39 7 -21 -46 -41
-63 -74 -63 -34 0 -88 33 -96 59 -6 20 -8 20 -48 -14 -67 -57 -120 -41 -121
36 -1 31 -5 45 -16 47 -9 1 -19 0 -23 -4z"/>
<path d="M1324 1115 c-10 -26 4 -32 108 -44 171 -20 193 -10 63 27 -110 32
-163 38 -171 17z"/>
</g>
</svg>
